Coordinates
version=1
nRows=13
nColumns=40
inDegrees=yes

Units are S.I. units (second, meters, Newtons, ...)
If the header above contains a line with 'inDegrees', this indicates whether rotational values are in degrees (yes) or radians (no).

endheader
time	pelvis_tilt	pelvis_list	pelvis_rotation	pelvis_tx	pelvis_ty	pelvis_tz	hip_flexion_r	hip_adduction_r	hip_rotation_r	knee_angle_r	knee_angle_r_beta	ankle_angle_r	subtalar_angle_r	mtp_angle_r	hip_flexion_l	hip_adduction_l	hip_rotation_l	knee_angle_l	knee_angle_l_beta	ankle_angle_l	subtalar_angle_l	mtp_angle_l	lumbar_extension	lumbar_bending	lumbar_rotation	arm_flex_r	arm_add_r	arm_rot_r	elbow_flex_r	pro_sup_r	wrist_flex_r	wrist_dev_r	arm_flex_l	arm_add_l	arm_rot_l	elbow_flex_l	pro_sup_l	wrist_flex_l	wrist_dev_l
      3.51500000	      4.50268220	     -3.50614239	     -4.89612821	     -0.16378620	      1.55031808	     -0.86891649	     -8.49487460	     -3.90072339	      6.69798598	      5.58273096	      0.09743704	    -37.58422681	      0.00000000	      0.00000000	    -12.93871574	    -11.09198221	    -14.22836851	      4.11664205	      0.07184896	    -32.00746686	      0.00000000	      0.00000000	     -3.49220282	      3.07117313	     -2.54079444	    -52.27623931	    -45.48143906	      3.93256953	    121.35775832	     87.41293455	      0.00000000	      0.00000000	    -28.16620617	    -61.57099173	     45.62652524	    107.94613097	     88.20672935	      0.00000000	      0.00000000
      3.52000000	      4.46449325	     -3.60613058	     -4.84230025	     -0.16402483	      1.55000411	     -0.86916158	     -8.31424313	     -3.77824542	      7.07189640	      5.94878151	      0.10382582	    -37.54021758	      0.00000000	      0.00000000	    -12.80407042	    -11.24935585	    -13.71491109	      4.26412278	      0.07442298	    -32.18877213	      0.00000000	      0.00000000	     -3.41277912	      3.20006878	     -2.45877904	    -52.54115361	    -45.22011323	      3.72753028	    121.35936784	     87.43360487	      0.00000000	      0.00000000	    -27.79108224	    -61.61385960	     45.97671862	    107.91453421	     88.19287819	      0.00000000	      0.00000000
      3.52500000	      4.40770834	     -3.61971319	     -4.84929450	     -0.16430379	      1.54945173	     -0.86938361	     -8.09673259	     -3.76148398	      7.43606995	      6.30049830	      0.10996444	    -37.50101201	      0.00000000	      0.00000000	    -12.60891019	    -11.31513112	    -13.30942110	      4.57237365	      0.07980297	    -32.18332615	      0.00000000	      0.00000000	     -3.31838327	      3.25116055	     -2.00580453	    -53.26690352	    -44.53630472	      3.03731975	    121.36999630	     87.50168396	      0.00000000	      0.00000000	    -26.28455823	    -61.88818969	     47.51138160	    107.86742235	     88.14707744	      0.00000000	      0.00000000
      3.53000000	      4.39558479	     -3.66559054	     -4.83169723	     -0.16468473	      1.54856918	     -0.86962954	     -7.91737332	     -3.70756700	      7.82915925	      6.71403712	      0.11718205	    -37.47097842	      0.00000000	      0.00000000	    -12.43622443	    -11.41754859	    -12.88691841	      4.86271878	      0.08487045	    -32.28633895	      0.00000000	      0.00000000	     -3.29963338	      3.30512439	     -2.12505655	    -53.22078401	    -44.51789197	      3.07459018	    121.36759769	     87.52274299	      0.00000000	      0.00000000	    -26.79375480	    -61.75227015	     46.92387135	    107.88437715	     88.14307425	      0.00000000	      0.00000000
      3.53500000	      4.36475087	     -3.82138214	     -4.80437056	     -0.16491819	      1.54752811	     -0.86976050	     -7.75150678	     -3.52217223	      8.24784565	      7.11954172	      0.12425944	    -37.33864193	      0.00000000	      0.00000000	    -12.26920631	    -11.65853426	    -12.46493863	      5.23059494	      0.09129110	    -32.28329484	      0.00000000	      0.00000000	     -3.26477930	      3.47901582	     -2.45148525	    -52.99571973	    -44.74303871	      3.32553281	    121.35548265	     87.38674834	      0.00000000	      0.00000000	    -27.99416425	    -61.40073239	     45.65522851	    107.82958371	     88.20215456	      0.00000000	      0.00000000
      3.54000000	      4.33296939	     -3.85768298	     -4.81774037	     -0.16532848	      1.54603753	     -0.86983801	     -7.55425322	     -3.46575968	      8.71078726	      7.52091577	      0.13126474	    -37.28653811	      0.00000000	      0.00000000	    -12.09930254	    -11.75870397	    -12.09905342	      5.53881235	      0.09667051	    -32.24374603	      0.00000000	      0.00000000	     -3.22893272	      3.51860751	     -2.45517537	    -53.09186370	    -44.61612392	      3.27846981	    121.36395768	     87.27576261	      0.00000000	      0.00000000	    -28.16363689	    -61.37590643	     45.45077851	    107.85068175	     88.22905671	      0.00000000	      0.00000000
      3.54500000	      4.47739924	     -3.91615906	     -4.79225010	     -0.16554338	      1.54470296	     -0.87010958	     -7.59809179	     -3.42395963	      8.92391536	      7.82198246	      0.13651935	    -37.35414361	      0.00000000	      0.00000000	    -12.17666969	    -11.84738245	    -11.76899439	      5.74499458	      0.10026907	    -32.39265098	      0.00000000	      0.00000000	     -3.37042849	      3.58398576	     -2.48523001	    -53.17935436	    -44.53262150	      3.26790972	    121.34702646	     87.33274811	      0.00000000	      0.00000000	    -28.19856919	    -61.29542765	     45.50325971	    107.85439694	     88.19581059	      0.00000000	      0.00000000
      3.55000000	      4.38192309	     -4.05054700	     -4.79694563	     -0.16610838	      1.54259343	     -0.87017763	     -7.22756045	     -3.26034895	      9.19395870	      8.48533627	      0.14809706	    -37.16307792	      0.00000000	      0.00000000	    -11.95632183	    -12.06410673	    -11.16970809	      6.03034205	      0.10524932	    -32.47089778	      0.00000000	      0.00000000	     -3.29070135	      3.73951677	     -2.41221636	    -53.37350712	    -44.29885704	      2.97105299	    121.38988592	     87.44644897	      0.00000000	      0.00000000	    -28.16563534	    -61.31656421	     45.42259910	    107.85967260	     88.15106949	      0.00000000	      0.00000000
      3.55500000	      4.52774129	     -4.07750430	     -4.79976261	     -0.16605560	      1.54071853	     -0.87029321	     -7.28378452	     -3.25305478	      9.34646541	      8.76909843	      0.15304964	    -37.21017094	      0.00000000	      0.00000000	    -12.03073484	    -12.12665472	    -10.91874170	      6.29858184	      0.10993099	    -32.54979968	      0.00000000	      0.00000000	     -3.40372635	      3.76531900	     -2.42520998	    -53.49685755	    -44.19839296	      2.92990844	    121.38923245	     87.46464877	      0.00000000	      0.00000000	    -28.22182217	    -61.26023443	     45.46531059	    107.82102151	     88.15898305	      0.00000000	      0.00000000
      3.56000000	      4.54201547	     -4.19533076	     -4.71544383	     -0.16662186	      1.53833382	     -0.87058936	     -7.05769747	     -3.11881545	      9.41290989	      9.34553935	      0.16311043	    -37.10584053	      0.00000000	      0.00000000	    -11.88002847	    -12.33911406	    -10.34902132	      6.60537225	      0.11528549	    -32.23268310	      0.00000000	      0.00000000	     -3.45571168	      3.91368664	     -2.44308546	    -53.70713840	    -43.97466776	      2.66239033	    121.47307814	     87.50585466	      0.00000000	      0.00000000	    -28.21220302	    -61.21327689	     45.41106550	    107.81236566	     88.16409912	      0.00000000	      0.00000000
      3.56500000	      4.68728261	     -4.25395057	     -4.71581169	     -0.16693714	      1.53581721	     -0.87078269	     -7.10165781	     -3.09246733	      9.56866260	      9.59840440	      0.16752376	    -37.10515012	      0.00000000	      0.00000000	    -11.95700861	    -12.43936453	    -10.16420707	      6.83037073	      0.11921246	    -32.29719615	      0.00000000	      0.00000000	     -3.62047619	      3.96902697	     -2.47118583	    -53.82154259	    -43.92560661	      2.67390319	    121.46525875	     87.42154485	      0.00000000	      0.00000000	    -28.30397832	    -61.16770979	     45.47956170	    107.82540680	     88.07382572	      0.00000000	      0.00000000
      3.57000000	      4.81905691	     -4.33023770	     -4.71560027	     -0.16722035	      1.53309981	     -0.87091512	     -7.08257470	     -3.02999370	      9.77963582	      9.96183758	      0.17386687	    -37.13014717	      0.00000000	      0.00000000	    -11.98619272	    -12.56936187	     -9.84597069	      7.12450323	      0.12434604	    -32.37913167	      0.00000000	      0.00000000	     -3.77741199	      4.04393594	     -2.46592739	    -53.91126037	    -43.81882190	      2.59932745	    121.48529605	     87.37334570	      0.00000000	      0.00000000	    -28.32898635	    -61.14287285	     45.44852474	    107.82142434	     88.04035057	      0.00000000	      0.00000000
      3.57500000	      4.84547622	     -4.45560122	     -4.70606194	     -0.16691219	      1.52986586	     -0.87091689	     -6.98923447	     -2.91738129	      9.74321528	     10.33528197	      0.18038470	    -36.91448190	      0.00000000	      0.00000000	    -11.97625229	    -12.77311662	     -9.48656900	      7.37738857	      0.12875972	    -32.02499857	      0.00000000	      0.00000000	     -3.72085510	      4.18847509	     -2.40569568	    -54.32692525	    -43.58085262	      2.22084725	    121.56893229	     87.47345960	      0.00000000	      0.00000000	    -28.42284723	    -61.12524276	     45.36847025	    107.83508662	     88.14971351	      0.00000000	      0.00000000
